<?xml version="1.0" encoding="UTF-8" standalone="no"?>
<svg
   xmlns:dc="http://purl.org/dc/elements/1.1/"
   xmlns:cc="http://creativecommons.org/ns#"
   xmlns:rdf="http://www.w3.org/1999/02/22-rdf-syntax-ns#"
   xmlns:svg="http://www.w3.org/2000/svg"
   xmlns="http://www.w3.org/2000/svg"
   xmlns:sodipodi="http://sodipodi.sourceforge.net/DTD/sodipodi-0.dtd"
   xmlns:inkscape="http://www.inkscape.org/namespaces/inkscape"
   version="1.1"
   width="511.99982"
   height="511.99979"
   viewBox="0 0 511.99982 511.99979"
   id="svg4"
   sodipodi:docname="icon.svg"
   inkscape:version="0.92.5 (2060ec1f9f, 2020-04-08)">
  <metadata
     id="metadata10">
    <rdf:RDF>
      <cc:Work
         rdf:about="">
        <dc:format>image/svg+xml</dc:format>
        <dc:type
           rdf:resource="http://purl.org/dc/dcmitype/StillImage" />
        <dc:title></dc:title>
      </cc:Work>
    </rdf:RDF>
  </metadata>
  <defs
     id="defs8" />
  <sodipodi:namedview
     pagecolor="#ffffff"
     bordercolor="#666666"
     borderopacity="1"
     objecttolerance="10"
     gridtolerance="10"
     guidetolerance="10"
     inkscape:pageopacity="0"
     inkscape:pageshadow="2"
     inkscape:window-width="1920"
     inkscape:window-height="1080"
     id="namedview6"
     showgrid="false"
     inkscape:zoom="0.74151267"
     inkscape:cx="-288.04647"
     inkscape:cy="214.52373"
     inkscape:window-x="0"
     inkscape:window-y="0"
     inkscape:window-maximized="0"
     inkscape:current-layer="svg4"
     fit-margin-top="0"
     fit-margin-left="0"
     fit-margin-right="0"
     fit-margin-bottom="0" />
  <path
     style="opacity:1;vector-effect:none;fill:#6a1b9a;fill-opacity:1;stroke:none;stroke-width:0.94314134;stroke-linecap:round;stroke-linejoin:miter;stroke-miterlimit:4;stroke-dasharray:none;stroke-dashoffset:0;stroke-opacity:1"
     d="M 255.99892,0.47157067 A 255.52844,255.52843 0 0 0 0.47157067,255.99891 255.52844,255.52843 0 0 0 255.99892,511.52821 255.52844,255.52843 0 0 0 511.52825,255.99891 255.52844,255.52843 0 0 0 255.99892,0.47157067 Z M 303.72155,111.97938 A 145.60656,145.60656 0 1 1 158.11415,257.5868 145.60656,145.60656 0 0 1 303.72155,111.97938 Z m -145.6074,4.73242 v 38.03907 A 109.20492,109.20492 0 0 0 85.311421,257.5868 109.20492,109.20492 0 0 0 158.11415,360.42079 v 38.03906 a 145.60656,145.60656 0 0 1 0,-281.74805 z"
     id="path817"
     inkscape:connector-curvature="0"
     inkscape:export-filename="~/Dev/investments-tracker/front/static/icon.png"
     inkscape:export-xdpi="96"
     inkscape:export-ydpi="96" />
</svg>
